<mxfile host="app.diagrams.net" modified="2023-04-04T13:39:51.141Z" agent="Mozilla/5.0 (Windows NT 10.0; Win64; x64; rv:109.0) Gecko/20100101 Firefox/111.0" etag="mgrlh4ZSJvdwNTRRhvJp" version="21.1.4" type="github">
  <diagram id="NWYPoZSCLohJYLar2-je" name="Page-1">
    <mxGraphModel dx="1050" dy="1658" grid="1" gridSize="10" guides="1" tooltips="1" connect="1" arrows="1" fold="1" page="1" pageScale="1" pageWidth="850" pageHeight="1100" math="0" shadow="0">
      <root>
        <mxCell id="0" />
        <mxCell id="1" parent="0" />
        <mxCell id="jssm3XXAmelOQDsjhv08-3" value="" style="image;aspect=fixed;perimeter=ellipsePerimeter;html=1;align=center;shadow=0;dashed=0;fontColor=#4277BB;labelBackgroundColor=default;fontSize=12;spacingTop=3;image=img/lib/ibm/applications/microservice.svg;" vertex="1" parent="1">
          <mxGeometry x="220" y="-400" width="82.2" height="60" as="geometry" />
        </mxCell>
        <mxCell id="jssm3XXAmelOQDsjhv08-4" value="" style="image;aspect=fixed;perimeter=ellipsePerimeter;html=1;align=center;shadow=0;dashed=0;fontColor=#4277BB;labelBackgroundColor=default;fontSize=12;spacingTop=3;image=img/lib/ibm/applications/microservice.svg;" vertex="1" parent="1">
          <mxGeometry x="210" y="-220" width="82.2" height="60" as="geometry" />
        </mxCell>
        <mxCell id="jssm3XXAmelOQDsjhv08-5" value="" style="image;aspect=fixed;perimeter=ellipsePerimeter;html=1;align=center;shadow=0;dashed=0;fontColor=#4277BB;labelBackgroundColor=default;fontSize=12;spacingTop=3;image=img/lib/ibm/applications/microservice.svg;" vertex="1" parent="1">
          <mxGeometry x="425" y="-500" width="82.2" height="60" as="geometry" />
        </mxCell>
      </root>
    </mxGraphModel>
  </diagram>
</mxfile>
